<?xml version="1.0" encoding="UTF-8" standalone="no" ?>
<!DOCTYPE svg PUBLIC "-//W3C//DTD SVG 1.1//EN" "http://www.w3.org/Graphics/SVG/1.1/DTD/svg11.dtd">
<svg xmlns="http://www.w3.org/2000/svg" xmlns:xlink="http://www.w3.org/1999/xlink" version="1.1" width="1080" height="1080" viewBox="0 0 1080 1080" xml:space="preserve">
<desc>Created with Fabric.js 5.2.4</desc>
<defs>
</defs>
<rect x="0" y="0" width="100%" height="100%" fill="transparent"></rect>
<g transform="matrix(1 0 0 1 540 540)" id="21584045-4562-4162-8734-b2bec6684b1f"  >
<rect style="stroke: none; stroke-width: 1; stroke-dasharray: none; stroke-linecap: butt; stroke-dashoffset: 0; stroke-linejoin: miter; stroke-miterlimit: 4; fill: rgb(255,255,255); fill-rule: nonzero; opacity: 1; visibility: hidden;" vector-effect="non-scaling-stroke"  x="-540" y="-540" rx="0" ry="0" width="1080" height="1080" />
</g>
<g transform="matrix(1 0 0 1 540 540)" id="55e5885e-1908-4c65-83e8-5bd108178119"  >
</g>
<g transform="matrix(1.06 0 0 1.06 540 540)"  >
<g style="" vector-effect="non-scaling-stroke"   >
		<g transform="matrix(1 0 0 1 0 0)"  >
<rect style="stroke: none; stroke-width: 1; stroke-dasharray: none; stroke-linecap: butt; stroke-dashoffset: 0; stroke-linejoin: miter; stroke-miterlimit: 4; fill: rgb(255,255,255); fill-opacity: 0; fill-rule: nonzero; opacity: 1;" vector-effect="non-scaling-stroke"  x="-336.5" y="-503.5" rx="0" ry="0" width="673" height="1007" />
</g>
		<g transform="matrix(1 0 0 1 -2.21 427.69)"  >
<path style="stroke: rgb(255,255,255); stroke-width: 2; stroke-dasharray: none; stroke-linecap: butt; stroke-dashoffset: 0; stroke-linejoin: miter; stroke-miterlimit: 4; fill: rgb(255,255,255); fill-rule: nonzero; opacity: 1;" vector-effect="non-scaling-stroke"  transform=" translate(2.21, -427.69)" d="M -222.879489 401.212981 C -222.879489 401.212981 218.462768 401.212981 218.462768 401.212981 C 218.462768 401.212981 218.462768 454.158593 218.462768 454.158593 C 218.462768 454.158593 -222.879489 454.158593 -222.879489 454.158593 C -222.879489 454.158593 -222.879489 401.212981 -222.879489 401.212981 Z" stroke-linecap="round" />
</g>
		<g transform="matrix(1 0 0 1 -5.2 -446.11)"  >
<path style="stroke: rgb(255,255,255); stroke-width: 2; stroke-dasharray: none; stroke-linecap: butt; stroke-dashoffset: 0; stroke-linejoin: miter; stroke-miterlimit: 4; fill: rgb(255,255,255); fill-rule: nonzero; opacity: 1;" vector-effect="non-scaling-stroke"  transform=" translate(5.2, 446.11)" d="M -218.241917 -466.399425 C -218.241917 -466.399425 207.834999 -466.399425 207.834999 -466.399425 C 207.834999 -466.399425 207.834999 -425.820671 207.834999 -425.820671 C 207.834999 -425.820671 -218.241917 -425.820671 -218.241917 -425.820671 C -218.241917 -425.820671 -218.241917 -466.399425 -218.241917 -466.399425 Z" stroke-linecap="round" />
</g>
		<g transform="matrix(1 0 0 1 -0.3 377.25)"  >
<path style="stroke: rgb(255,255,255); stroke-width: 2; stroke-dasharray: none; stroke-linecap: butt; stroke-dashoffset: 0; stroke-linejoin: miter; stroke-miterlimit: 4; fill: rgb(255,255,255); fill-rule: nonzero; opacity: 1;" vector-effect="non-scaling-stroke"  transform=" translate(0.3, -377.25)" d="M -296.694175 328.944152 C -296.694175 328.944152 296.093789 328.944152 296.093789 328.944152 C 296.093789 328.944152 296.093789 425.560233 296.093789 425.560233 C 296.093789 425.560233 -296.694175 425.560233 -296.694175 425.560233 C -296.694175 425.560233 -296.694175 328.944152 -296.694175 328.944152 Z" stroke-linecap="round" />
</g>
		<g transform="matrix(1 0 0 1 3.93 -51.55)"  >
<path style="stroke: rgb(255,255,255); stroke-width: 2; stroke-dasharray: none; stroke-linecap: butt; stroke-dashoffset: 0; stroke-linejoin: miter; stroke-miterlimit: 4; fill: rgb(255,255,255); fill-rule: nonzero; opacity: 1;" vector-effect="non-scaling-stroke"  transform=" translate(-3.93, 51.55)" d="M -288.240268 -439.588463 C -288.240268 -439.588463 296.093789 -439.588463 296.093789 -439.588463 C 296.093789 -439.588463 296.093789 336.480207 296.093789 336.480207 C 296.093789 336.480207 -288.240268 336.480207 -288.240268 336.480207 C -288.240268 336.480207 -288.240268 -439.588463 -288.240268 -439.588463 Z" stroke-linecap="round" />
</g>
		<g transform="matrix(0.13 0 0 -0.13 -49.01 268.08)"  >
<path style="stroke: none; stroke-width: 1; stroke-dasharray: none; stroke-linecap: butt; stroke-dashoffset: 0; stroke-linejoin: miter; stroke-miterlimit: 4; fill: rgb(0,0,0); fill-rule: nonzero; opacity: 1;" vector-effect="non-scaling-stroke"  transform=" translate(-2437.44, -1984.37)" d="M 1767 2349 C 1751 2340 1749 2330 1755 2287 C 1808 1867 2068 1610 2438 1610 C 2642 1610 2812 1688 2937 1839 C 3033 1955 3099 2121 3116 2285 C 3116 2285 3123 2348 3123 2348 C 3123 2348 3045 2355 3045 2355 C 2948 2364 2842 2356 2825 2339 C 2819 2331 2805 2294 2795 2256 C 2755 2104 2676 1995 2572 1947 C 2535 1930 2506 1925 2435 1925 C 2357 1925 2338 1929 2288 1953 C 2185 2004 2111 2113 2072 2270 C 2072 2270 2054 2345 2054 2345 C 2054 2345 2009 2352 2009 2352 C 1940 2362 1787 2360 1767 2349 C 1767 2349 1767 2349 1767 2349 Z" stroke-linecap="round" />
</g>
		<g transform="matrix(0.13 0 0 -0.13 68.01 50.71)"  >
<path style="stroke: none; stroke-width: 1; stroke-dasharray: none; stroke-linecap: butt; stroke-dashoffset: 0; stroke-linejoin: miter; stroke-miterlimit: 4; fill: rgb(0,0,0); fill-rule: nonzero; opacity: 1;" vector-effect="non-scaling-stroke"  transform=" translate(-3315.11, -3614.71)" d="M 3243 4405 C 3173 4386 3125 4354 3059 4283 C 2966 4183 2892 4013 2859 3830 C 2852 3788 2846 3688 2846 3605 C 2847 3365 2899 3169 3001 3016 C 3094 2877 3191 2815 3315 2815 C 3520 2816 3693 3022 3763 3350 C 3787 3466 3792 3714 3771 3830 C 3702 4217 3472 4467 3243 4405 C 3243 4405 3243 4405 3243 4405 Z" stroke-linecap="round" />
</g>
		<g transform="matrix(0.13 0 0 -0.13 -150.82 50.61)"  >
<path style="stroke: none; stroke-width: 1; stroke-dasharray: none; stroke-linecap: butt; stroke-dashoffset: 0; stroke-linejoin: miter; stroke-miterlimit: 4; fill: rgb(0,0,0); fill-rule: nonzero; opacity: 1;" vector-effect="non-scaling-stroke"  transform=" translate(-1673.84, -3615.44)" d="M 1598 4406 C 1294 4322 1119 3772 1241 3285 C 1290 3091 1413 2907 1537 2845 C 1587 2819 1606 2815 1675 2815 C 1743 2815 1763 2820 1809 2844 C 2199 3047 2268 3925 1923 4291 C 1826 4394 1706 4437 1598 4406 C 1598 4406 1598 4406 1598 4406 Z" stroke-linecap="round" />
</g>
		<g transform="matrix(0.13 0 0 -0.13 -1.2 -4.85)"  >
<path style="stroke: none; stroke-width: 1; stroke-dasharray: none; stroke-linecap: butt; stroke-dashoffset: 0; stroke-linejoin: miter; stroke-miterlimit: 4; fill: rgb(0,0,0); fill-rule: nonzero; opacity: 1;" vector-effect="non-scaling-stroke"  transform=" translate(-2785.65, -4071.19)" d="M 2270 7839 C 1796 7812 1274 7723 940 7613 C 530 7478 277 7275 262 7071 C 260 7036 270 6951 289 6845 C 369 6396 412 6018 452 5405 C 469 5149 469 3857 452 3480 C 417 2700 372 2091 300 1455 C 266 1157 264 1085 286 1009 C 376 701 907 470 1785 356 C 2547 257 3401 277 4140 411 C 4733 518 5144 714 5263 945 C 5290 998 5294 1017 5298 1106 C 5302 1192 5283 1423 5255 1630 C 5232 1806 5172 2549 5151 2915 C 5114 3555 5099 4306 5111 4945 C 5124 5642 5171 6185 5267 6730 C 5287 6843 5305 6975 5308 7023 C 5312 7106 5310 7115 5281 7173 C 5189 7361 4942 7521 4565 7635 C 4226 7738 3742 7814 3270 7840 C 3056 7852 2482 7851 2270 7839 C 2270 7839 2270 7839 2270 7839 Z M 3412 7515 C 3878 7478 4277 7396 4588 7274 C 4723 7221 4899 7128 4944 7086 C 4944 7086 4975 7058 4975 7058 C 4975 7058 4938 7026 4938 7026 C 4918 7009 4851 6969 4788 6938 C 4354 6719 3869 6621 3071 6589 C 2282 6557 1516 6647 1031 6827 C 867 6887 617 7018 605 7049 C 596 7071 635 7102 735 7158 C 1137 7379 1743 7509 2480 7534 C 2686 7541 3223 7530 3412 7515 C 3412 7515 3412 7515 3412 7515 Z M 940 6520 C 1310 6405 1707 6326 2120 6284 C 2339 6262 3072 6253 3290 6269 C 3821 6310 4269 6395 4710 6540 C 4814 6574 4889 6594 4895 6589 C 4901 6583 4898 6517 4886 6407 C 4838 5937 4807 5493 4789 5010 C 4776 4659 4782 3666 4800 3310 C 4831 2663 4893 1912 4972 1206 C 4972 1206 4984 1097 4984 1097 C 4984 1097 4947 1065 4947 1065 C 4897 1021 4744 938 4625 890 C 4313 763 3984 695 3405 638 C 3199 618 2334 621 2105 643 C 1573 694 1176 783 875 919 C 777 964 621 1059 605 1084 C 592 1103 592 1123 605 1230 C 819 3089 851 4875 695 6350 C 679 6502 674 6578 681 6587 C 689 6596 700 6596 733 6585 C 756 6577 849 6548 940 6520 C 940 6520 940 6520 940 6520 Z" stroke-linecap="round" />
</g>
</g>
</g>
</svg>