<svg xmlns="http://www.w3.org/2000/svg" viewBox="0 0 673 1007" preserveAspectRatio="xMidYMid meet" width="673" height="1007"><defs></defs><g>
<rect fill="#ffffff" fill-opacity="0" x="0" y="0" width="673" height="1007"/>
<g>
	<g transform="matrix(1,0,0,1,336.5,503.5)">
		<g>
			<g>
				<g>
					<g/>
					<path d="M-222.879489,401.212981C-222.879489,401.212981 218.462768,401.212981 218.462768,401.212981 C218.462768,401.212981 218.462768,454.158593 218.462768,454.158593 C218.462768,454.158593 -222.879489,454.158593 -222.879489,454.158593 C-222.879489,454.158593 -222.879489,401.212981 -222.879489,401.212981 Z" transform="matrix(1,0,0,1,0,0)" fill="#ffffff" stroke="#ffffff" stroke-width="2"/>
					<path d="M-218.241917,-466.399425C-218.241917,-466.399425 207.834999,-466.399425 207.834999,-466.399425 C207.834999,-466.399425 207.834999,-425.820671 207.834999,-425.820671 C207.834999,-425.820671 -218.241917,-425.820671 -218.241917,-425.820671 C-218.241917,-425.820671 -218.241917,-466.399425 -218.241917,-466.399425 Z" transform="" fill="#ffffff" stroke="#ffffff" stroke-width="2"/>
					<path d="M-296.694175,328.944152C-296.694175,328.944152 296.093789,328.944152 296.093789,328.944152 C296.093789,328.944152 296.093789,425.560233 296.093789,425.560233 C296.093789,425.560233 -296.694175,425.560233 -296.694175,425.560233 C-296.694175,425.560233 -296.694175,328.944152 -296.694175,328.944152 Z" transform="matrix(1,0,0,1,0,0)" fill="#ffffff" stroke="#ffffff" stroke-width="2"/>
					<path d="M-288.240268,-439.588463C-288.240268,-439.588463 296.093789,-439.588463 296.093789,-439.588463 C296.093789,-439.588463 296.093789,336.480207 296.093789,336.480207 C296.093789,336.480207 -288.240268,336.480207 -288.240268,336.480207 C-288.240268,336.480207 -288.240268,-439.588463 -288.240268,-439.588463 Z" transform="matrix(1,0,0,1,0,0)" fill="#ffffff" stroke="#ffffff" stroke-width="2"/>
					<path d="M1767.000000,2349.000000C1751.000000,2340.000000 1749.000000,2330.000000 1755.000000,2287.000000 C1808.000000,1867.000000 2068.000000,1610.000000 2438.000000,1610.000000 C2642.000000,1610.000000 2812.000000,1688.000000 2937.000000,1839.000000 C3033.000000,1955.000000 3099.000000,2121.000000 3116.000000,2285.000000 C3116.000000,2285.000000 3123.000000,2348.000000 3123.000000,2348.000000 C3123.000000,2348.000000 3045.000000,2355.000000 3045.000000,2355.000000 C2948.000000,2364.000000 2842.000000,2356.000000 2825.000000,2339.000000 C2819.000000,2331.000000 2805.000000,2294.000000 2795.000000,2256.000000 C2755.000000,2104.000000 2676.000000,1995.000000 2572.000000,1947.000000 C2535.000000,1930.000000 2506.000000,1925.000000 2435.000000,1925.000000 C2357.000000,1925.000000 2338.000000,1929.000000 2288.000000,1953.000000 C2185.000000,2004.000000 2111.000000,2113.000000 2072.000000,2270.000000 C2072.000000,2270.000000 2054.000000,2345.000000 2054.000000,2345.000000 C2054.000000,2345.000000 2009.000000,2352.000000 2009.000000,2352.000000 C1940.000000,2362.000000 1787.000000,2360.000000 1767.000000,2349.000000 C1767.000000,2349.000000 1767.000000,2349.000000 1767.000000,2349.000000 Z" transform="matrix(0.13333334,0,0,-0.13333334,-374,532.666687012)" fill="#000000"/>
					<path d="M3243.000000,4405.000000C3173.000000,4386.000000 3125.000000,4354.000000 3059.000000,4283.000000 C2966.000000,4183.000000 2892.000000,4013.000000 2859.000000,3830.000000 C2852.000000,3788.000000 2846.000000,3688.000000 2846.000000,3605.000000 C2847.000000,3365.000000 2899.000000,3169.000000 3001.000000,3016.000000 C3094.000000,2877.000000 3191.000000,2815.000000 3315.000000,2815.000000 C3520.000000,2816.000000 3693.000000,3022.000000 3763.000000,3350.000000 C3787.000000,3466.000000 3792.000000,3714.000000 3771.000000,3830.000000 C3702.000000,4217.000000 3472.000000,4467.000000 3243.000000,4405.000000 C3243.000000,4405.000000 3243.000000,4405.000000 3243.000000,4405.000000 Z" transform="matrix(0.13333334,0,0,-0.13333334,-374,532.666687012)" fill="#000000"/>
					<path d="M1598.000000,4406.000000C1294.000000,4322.000000 1119.000000,3772.000000 1241.000000,3285.000000 C1290.000000,3091.000000 1413.000000,2907.000000 1537.000000,2845.000000 C1587.000000,2819.000000 1606.000000,2815.000000 1675.000000,2815.000000 C1743.000000,2815.000000 1763.000000,2820.000000 1809.000000,2844.000000 C2199.000000,3047.000000 2268.000000,3925.000000 1923.000000,4291.000000 C1826.000000,4394.000000 1706.000000,4437.000000 1598.000000,4406.000000 C1598.000000,4406.000000 1598.000000,4406.000000 1598.000000,4406.000000 Z" transform="matrix(0.13333334,0,0,-0.13333334,-374,532.666687012)" fill="#000000"/>
					<path d="M2270.000000,7839.000000C1796.000000,7812.000000 1274.000000,7723.000000 940.000000,7613.000000 C530.000000,7478.000000 277.000000,7275.000000 262.000000,7071.000000 C260.000000,7036.000000 270.000000,6951.000000 289.000000,6845.000000 C369.000000,6396.000000 412.000000,6018.000000 452.000000,5405.000000 C469.000000,5149.000000 469.000000,3857.000000 452.000000,3480.000000 C417.000000,2700.000000 372.000000,2091.000000 300.000000,1455.000000 C266.000000,1157.000000 264.000000,1085.000000 286.000000,1009.000000 C376.000000,701.000000 907.000000,470.000000 1785.000000,356.000000 C2547.000000,257.000000 3401.000000,277.000000 4140.000000,411.000000 C4733.000000,518.000000 5144.000000,714.000000 5263.000000,945.000000 C5290.000000,998.000000 5294.000000,1017.000000 5298.000000,1106.000000 C5302.000000,1192.000000 5283.000000,1423.000000 5255.000000,1630.000000 C5232.000000,1806.000000 5172.000000,2549.000000 5151.000000,2915.000000 C5114.000000,3555.000000 5099.000000,4306.000000 5111.000000,4945.000000 C5124.000000,5642.000000 5171.000000,6185.000000 5267.000000,6730.000000 C5287.000000,6843.000000 5305.000000,6975.000000 5308.000000,7023.000000 C5312.000000,7106.000000 5310.000000,7115.000000 5281.000000,7173.000000 C5189.000000,7361.000000 4942.000000,7521.000000 4565.000000,7635.000000 C4226.000000,7738.000000 3742.000000,7814.000000 3270.000000,7840.000000 C3056.000000,7852.000000 2482.000000,7851.000000 2270.000000,7839.000000 C2270.000000,7839.000000 2270.000000,7839.000000 2270.000000,7839.000000 ZM3412.000000,7515.000000C3878.000000,7478.000000 4277.000000,7396.000000 4588.000000,7274.000000 C4723.000000,7221.000000 4899.000000,7128.000000 4944.000000,7086.000000 C4944.000000,7086.000000 4975.000000,7058.000000 4975.000000,7058.000000 C4975.000000,7058.000000 4938.000000,7026.000000 4938.000000,7026.000000 C4918.000000,7009.000000 4851.000000,6969.000000 4788.000000,6938.000000 C4354.000000,6719.000000 3869.000000,6621.000000 3071.000000,6589.000000 C2282.000000,6557.000000 1516.000000,6647.000000 1031.000000,6827.000000 C867.000000,6887.000000 617.000000,7018.000000 605.000000,7049.000000 C596.000000,7071.000000 635.000000,7102.000000 735.000000,7158.000000 C1137.000000,7379.000000 1743.000000,7509.000000 2480.000000,7534.000000 C2686.000000,7541.000000 3223.000000,7530.000000 3412.000000,7515.000000 C3412.000000,7515.000000 3412.000000,7515.000000 3412.000000,7515.000000 ZM940.000000,6520.000000C1310.000000,6405.000000 1707.000000,6326.000000 2120.000000,6284.000000 C2339.000000,6262.000000 3072.000000,6253.000000 3290.000000,6269.000000 C3821.000000,6310.000000 4269.000000,6395.000000 4710.000000,6540.000000 C4814.000000,6574.000000 4889.000000,6594.000000 4895.000000,6589.000000 C4901.000000,6583.000000 4898.000000,6517.000000 4886.000000,6407.000000 C4838.000000,5937.000000 4807.000000,5493.000000 4789.000000,5010.000000 C4776.000000,4659.000000 4782.000000,3666.000000 4800.000000,3310.000000 C4831.000000,2663.000000 4893.000000,1912.000000 4972.000000,1206.000000 C4972.000000,1206.000000 4984.000000,1097.000000 4984.000000,1097.000000 C4984.000000,1097.000000 4947.000000,1065.000000 4947.000000,1065.000000 C4897.000000,1021.000000 4744.000000,938.000000 4625.000000,890.000000 C4313.000000,763.000000 3984.000000,695.000000 3405.000000,638.000000 C3199.000000,618.000000 2334.000000,621.000000 2105.000000,643.000000 C1573.000000,694.000000 1176.000000,783.000000 875.000000,919.000000 C777.000000,964.000000 621.000000,1059.000000 605.000000,1084.000000 C592.000000,1103.000000 592.000000,1123.000000 605.000000,1230.000000 C819.000000,3089.000000 851.000000,4875.000000 695.000000,6350.000000 C679.000000,6502.000000 674.000000,6578.000000 681.000000,6587.000000 C689.000000,6596.000000 700.000000,6596.000000 733.000000,6585.000000 C756.000000,6577.000000 849.000000,6548.000000 940.000000,6520.000000 C940.000000,6520.000000 940.000000,6520.000000 940.000000,6520.000000 Z" transform="matrix(0.132787972,0,0,-0.131929242,-371.104340311,532.254072748)" fill="#000000"/>
				</g>
			</g>
		</g>
	</g>
</g></g></svg>